<?xml version="1.0" standalone="no"?>
<!DOCTYPE svg PUBLIC "-//W3C//DTD SVG 20010904//EN"
 "http://www.w3.org/TR/2001/REC-SVG-20010904/DTD/svg10.dtd">
<svg version="1.0" xmlns="http://www.w3.org/2000/svg"
 width="5071.000000pt" height="5071.000000pt" viewBox="0 0 5071.000000 5071.000000"
 preserveAspectRatio="xMidYMid meet">
<metadata>
Created by potrace 1.14, written by Peter Selinger 2001-2017
</metadata>
<g transform="translate(0.000000,5071.000000) scale(0.100000,-0.100000)"
fill="#000000" stroke="none">
<path d="M19865 46794 c-115 -30 -213 -58 -217 -62 -3 -4 -9 -36 -13 -72 -4
-36 -8 -76 -9 -90 -2 -14 -6 -52 -10 -85 -4 -33 -9 -67 -11 -75 -2 -8 -7 -44
-10 -80 -3 -36 -7 -81 -10 -100 -3 -19 -7 -55 -10 -80 -6 -53 -13 -111 -20
-161 -3 -20 -7 -58 -10 -85 -2 -27 -7 -71 -10 -99 -8 -58 -11 -78 -20 -160 -3
-33 -8 -71 -10 -85 -3 -14 -7 -50 -10 -80 -3 -30 -8 -71 -10 -90 -3 -19 -7
-54 -10 -77 -3 -24 -7 -61 -10 -83 -3 -22 -8 -64 -11 -93 -9 -81 -20 -180 -29
-247 -3 -19 -7 -59 -11 -88 -3 -29 -7 -61 -9 -70 -1 -9 -6 -46 -10 -82 -3 -36
-8 -81 -11 -100 -2 -19 -6 -57 -9 -85 -4 -27 -8 -61 -10 -75 -2 -14 -7 -50
-10 -80 -3 -30 -8 -66 -10 -80 -2 -14 -7 -54 -11 -90 -3 -36 -7 -76 -9 -90 -2
-14 -6 -50 -9 -80 -4 -30 -9 -66 -11 -80 -2 -14 -7 -52 -10 -85 -7 -69 -9 -87
-20 -170 -4 -33 -8 -71 -10 -85 -5 -46 -22 -184 -30 -240 -2 -19 -7 -62 -10
-95 -3 -33 -7 -70 -9 -82 -3 -12 -8 -53 -11 -90 -4 -37 -9 -77 -11 -88 -2 -11
-6 -45 -10 -75 -3 -30 -7 -66 -9 -80 -2 -14 -7 -55 -10 -91 l-6 -66 133 34
c404 104 524 134 533 137 6 2 27 6 48 11 20 4 39 11 42 15 3 4 7 34 10 66 3
33 8 79 10 104 2 25 7 77 10 115 4 39 8 86 10 105 2 19 6 69 10 110 8 92 14
142 17 145 4 3 167 46 195 51 12 2 34 9 48 14 14 5 25 8 25 5 0 -2 18 2 40 10
22 8 40 12 40 10 0 -2 18 2 40 10 22 8 40 12 40 10 0 -3 11 0 25 5 14 5 36 12
48 14 12 2 42 9 67 16 43 12 54 14 101 25 11 2 29 7 39 10 10 3 28 8 39 10 12
3 30 7 41 10 11 3 29 7 40 10 11 3 28 7 38 9 233 58 470 118 479 121 10 3 123
-160 313 -453 58 -91 53 -88 138 -67 12 3 32 7 45 11 12 3 33 7 47 10 14 3 34
8 45 11 11 4 25 8 30 9 30 8 57 14 73 18 9 2 37 9 62 16 25 7 52 13 60 15 8 2
44 11 80 20 36 9 72 18 80 20 13 3 79 19 120 30 8 2 21 4 28 4 10 1 10 6 2 22
-10 18 -143 210 -163 234 -4 6 -69 98 -144 205 -191 274 -216 310 -322 461
-52 74 -113 161 -135 194 -23 33 -43 62 -46 65 -8 7 -252 356 -265 378 -5 9
-13 19 -16 22 -3 3 -32 43 -64 90 -33 47 -133 191 -225 320 -91 130 -178 256
-195 280 -16 25 -33 47 -37 48 -5 2 -8 10 -8 17 0 7 -3 15 -7 17 -12 5 -63 75
-63 86 0 6 -4 12 -8 14 -4 2 -34 41 -67 88 -32 47 -62 87 -65 90 -3 3 -18 25
-34 49 -16 25 -33 50 -37 55 -5 6 -66 93 -137 193 -277 398 -317 453 -327 452
-5 0 -104 -25 -220 -55z m400 -1340 c47 -71 88 -133 93 -139 4 -5 68 -102 142
-215 74 -113 138 -209 142 -215 33 -41 271 -413 272 -424 1 -11 -52 -28 -194
-63 -107 -27 -208 -51 -225 -54 -16 -4 -38 -10 -47 -15 -10 -5 -18 -7 -18 -5
0 3 -11 1 -25 -4 -14 -5 -36 -12 -48 -14 -21 -5 -42 -10 -87 -21 -11 -3 -29
-7 -40 -10 -11 -3 -29 -7 -41 -10 -11 -2 -29 -7 -39 -10 -18 -6 -39 -11 -88
-21 -13 -3 -21 -1 -19 3 3 4 8 44 12 88 3 44 8 96 10 115 4 38 12 132 20 220
2 30 7 82 10 115 7 72 12 127 20 215 3 36 8 85 10 110 3 25 7 77 10 115 3 39
8 86 10 105 4 36 16 173 20 225 4 47 5 49 10 43 3 -3 44 -63 90 -134z"/>
<path d="M23917 46364 c-1 -1 -26 -5 -56 -8 -69 -8 -142 -26 -158 -39 -7 -5
-13 -7 -13 -3 0 3 -28 -8 -62 -25 -108 -53 -211 -150 -285 -268 -23 -36 -48
-75 -56 -85 -12 -18 -13 -18 -14 5 0 13 -4 65 -8 114 -7 84 -11 137 -14 193
-1 24 -10 25 -201 7 -39 -3 -107 -9 -260 -20 -19 -1 -79 -6 -133 -10 -142 -10
-132 -6 -131 -51 1 -37 11 -193 19 -279 2 -22 7 -80 10 -130 4 -49 8 -106 10
-125 2 -19 6 -75 10 -125 3 -49 8 -110 10 -135 2 -25 7 -81 10 -125 3 -44 7
-105 10 -135 3 -30 7 -89 10 -130 3 -41 7 -100 10 -130 3 -30 7 -91 10 -135 3
-44 8 -100 10 -125 2 -25 7 -83 10 -130 3 -47 8 -105 10 -130 2 -25 7 -85 11
-135 3 -49 7 -103 9 -120 1 -16 6 -73 9 -125 4 -52 9 -113 11 -135 2 -22 7
-83 10 -135 4 -52 9 -106 10 -120 2 -14 3 -41 4 -61 l1 -36 43 3 c55 3 174 12
262 19 39 3 95 8 125 10 30 2 93 7 140 11 47 4 101 7 120 8 l35 2 -1 49 c-1
52 -13 224 -19 285 -2 19 -7 78 -10 130 -4 52 -9 113 -11 135 -2 22 -6 78 -9
125 -3 47 -8 105 -10 130 -2 25 -7 81 -10 125 -3 44 -8 107 -11 140 -3 33 -7
89 -9 125 -3 36 -7 88 -10 115 -14 159 -19 242 -19 345 0 97 4 124 24 175 40
103 154 201 256 219 16 3 40 8 54 11 35 8 158 8 199 1 18 -4 48 -13 66 -20 19
-8 35 -12 38 -10 2 3 10 -2 17 -11 7 -8 17 -15 21 -15 16 0 80 -63 103 -100
42 -67 61 -127 71 -226 5 -49 8 -76 21 -254 3 -47 7 -101 9 -120 2 -19 6 -73
9 -120 3 -47 8 -108 11 -136 2 -27 7 -88 10 -135 4 -46 8 -104 10 -129 2 -25
6 -81 9 -125 4 -44 8 -102 11 -130 2 -27 7 -90 11 -140 3 -49 7 -103 9 -120 1
-16 6 -77 10 -135 4 -58 9 -108 11 -112 3 -4 13 -5 22 -3 10 2 59 6 108 10
137 9 204 15 259 20 28 2 93 7 145 11 52 4 109 8 125 10 17 1 38 3 48 3 19 1
19 28 2 231 -9 107 -17 208 -20 250 -2 25 -6 83 -10 130 -4 47 -8 105 -10 130
-9 121 -22 296 -30 385 -3 33 -7 96 -10 140 -3 44 -8 101 -10 127 -3 26 -7 80
-10 120 -9 152 -20 270 -30 318 -2 14 -7 39 -10 55 -3 17 -7 41 -10 55 -3 14
-8 35 -11 48 -16 81 -84 246 -135 332 -78 130 -202 247 -336 314 -49 25 -158
58 -233 72 -32 5 -237 13 -243 8z"/>
<path d="M26410 46345 c-328 -62 -558 -294 -679 -685 -11 -36 -23 -76 -25 -90
-3 -14 -8 -36 -11 -50 -5 -24 -11 -56 -20 -110 -2 -14 -7 -50 -10 -80 -3 -30
-8 -73 -10 -95 -4 -35 -9 -104 -20 -250 -2 -22 -6 -80 -11 -130 -14 -169 -8
-444 11 -535 27 -125 30 -135 50 -195 21 -63 76 -179 87 -183 4 -2 8 -9 8 -15
0 -6 21 -38 47 -71 115 -150 292 -260 478 -297 300 -60 520 -4 703 178 45 46
82 90 82 98 0 8 4 15 10 15 5 0 8 -20 5 -47 -2 -27 -6 -82 -10 -123 -12 -155
-16 -191 -24 -213 -5 -12 -10 -26 -11 -32 -6 -29 -34 -83 -65 -125 -33 -44
-123 -120 -143 -120 -5 0 -22 -6 -38 -14 -124 -61 -370 -49 -517 25 -74 38
-161 101 -197 144 l-35 41 -115 -91 c-63 -49 -122 -95 -130 -102 -8 -6 -71
-55 -140 -109 -69 -53 -129 -100 -133 -104 -13 -11 70 -125 141 -194 80 -77
122 -109 228 -168 221 -125 246 -136 319 -142 39 -3 106 -9 150 -13 104 -10
416 -10 480 -1 62 10 122 22 160 32 74 20 102 30 113 38 6 6 12 8 12 5 0 -4
30 8 68 26 264 128 439 337 536 643 16 48 19 62 31 124 3 14 7 36 10 50 12 54
21 147 40 390 6 85 12 157 20 246 3 34 7 93 10 130 8 123 15 208 20 264 3 30
8 87 11 125 5 79 10 137 19 245 3 41 8 100 10 130 5 69 14 179 20 245 2 28 7
88 10 135 3 47 8 103 10 125 2 22 6 78 10 125 3 47 8 105 10 130 2 25 7 83 11
130 3 47 7 101 9 120 2 19 6 78 10 130 4 52 8 110 10 128 2 24 -1 32 -14 33
-9 1 -29 2 -46 4 -26 2 -134 11 -260 20 -22 2 -71 6 -110 9 -38 4 -104 9 -145
11 -41 3 -92 7 -112 9 -30 3 -38 0 -39 -13 -1 -9 -2 -32 -4 -51 -17 -216 -20
-258 -24 -270 -1 -3 -9 11 -18 30 -10 19 -21 40 -25 45 -105 141 -163 198
-268 261 -74 44 -113 59 -210 81 -51 11 -277 10 -340 -2z m548 -704 c132 -40
221 -138 250 -276 8 -38 7 -197 -1 -295 -4 -41 -9 -102 -12 -135 -3 -33 -7
-89 -10 -125 -9 -136 -22 -267 -30 -312 -24 -125 -113 -237 -220 -277 -64 -24
-190 -33 -270 -18 -106 20 -218 104 -264 199 -12 26 -22 49 -21 50 1 2 -4 16
-10 32 -30 79 -31 172 -5 481 2 17 6 66 9 110 11 133 14 158 26 215 25 119 53
179 121 254 103 113 265 149 437 97z"/>
<path d="M29648 45875 c-2 -2 -30 -6 -63 -10 -327 -37 -625 -258 -793 -590
-51 -101 -77 -165 -107 -265 -1 -3 -5 -12 -8 -20 -8 -19 -39 -139 -42 -165 -2
-11 -19 -83 -38 -161 -20 -78 -38 -156 -41 -175 -3 -19 -8 -45 -11 -59 -25
-117 -25 -353 0 -485 29 -149 99 -306 190 -424 51 -68 245 -246 377 -349 15
-12 96 -35 168 -48 14 -3 39 -9 55 -14 17 -5 41 -11 55 -14 14 -3 36 -8 50
-11 14 -3 36 -8 50 -11 14 -3 33 -7 42 -10 67 -20 157 -29 303 -28 198 0 244
6 475 68 67 18 276 111 286 128 3 5 -16 39 -43 76 -26 37 -61 87 -78 112 -16
25 -32 47 -35 50 -3 3 -48 67 -100 142 -52 76 -101 138 -108 138 -7 0 -26 -7
-41 -15 -70 -36 -239 -69 -346 -68 -256 2 -493 120 -587 293 -19 36 -39 79
-43 95 -5 17 -10 37 -12 45 -8 28 -11 180 -4 184 4 3 61 -9 126 -25 66 -16
129 -31 140 -33 11 -2 47 -11 80 -19 33 -9 72 -18 87 -21 15 -2 32 -7 36 -10
5 -3 26 -8 46 -10 20 -2 51 -9 69 -15 17 -6 43 -12 57 -15 14 -2 75 -16 135
-31 61 -15 119 -29 130 -31 11 -2 65 -15 120 -28 125 -30 235 -57 255 -61 13
-3 123 -29 173 -41 9 -2 25 -6 35 -8 9 -2 44 -11 77 -20 33 -8 63 -12 66 -8 6
7 24 72 44 163 2 11 6 28 9 37 3 9 7 28 10 42 3 14 9 48 15 77 6 29 13 74 16
100 4 26 8 59 11 73 16 89 21 289 10 420 -16 201 -49 328 -123 480 -15 30 -31
57 -35 58 -4 2 -8 9 -8 15 0 14 -70 109 -116 159 -75 80 -173 153 -282 207
-64 32 -214 86 -267 95 -16 3 -41 8 -55 11 -14 3 -38 7 -55 10 -16 3 -43 8
-60 11 -31 6 -292 14 -297 9z m269 -678 c104 -16 204 -65 270 -134 43 -45 98
-145 107 -198 3 -17 8 -41 11 -55 12 -53 4 -254 -10 -269 -2 -1 -34 5 -71 14
-37 9 -76 19 -86 21 -10 2 -26 6 -36 8 -9 2 -35 9 -57 15 -22 5 -54 13 -72 16
-18 3 -45 10 -60 16 -15 6 -30 10 -33 9 -6 -1 -89 17 -140 30 -31 8 -140 34
-194 47 -12 2 -25 5 -31 7 -5 1 -37 9 -70 16 -33 8 -62 14 -65 15 -3 1 -20 5
-37 9 -18 4 -33 12 -33 17 0 26 55 148 93 207 49 75 102 123 187 167 60 32 67
34 115 42 17 3 31 6 32 7 4 4 141 -2 180 -7z"/>
<path d="M31744 45228 c0 -73 -4 -297 -8 -498 -4 -201 -9 -471 -11 -600 -3
-129 -7 -347 -9 -485 -8 -366 -18 -919 -20 -1077 l-2 -137 105 -42 c58 -23
147 -57 196 -76 50 -19 104 -40 120 -48 60 -27 56 -28 135 62 26 28 319 351
390 428 20 22 108 119 195 215 87 96 175 193 196 215 20 22 108 119 195 215
87 96 177 195 200 220 23 25 115 126 204 225 90 99 202 223 249 275 47 52 111
122 141 155 30 33 71 78 92 100 l38 40 -163 65 c-89 36 -164 65 -167 66 -3 0
-16 5 -30 11 -102 44 -313 124 -320 121 -5 -2 -252 -294 -549 -651 -297 -356
-547 -654 -556 -663 -8 -9 -20 -24 -25 -35 -14 -24 -30 -25 -25 0 2 10 6 70
10 132 3 63 8 141 10 174 2 33 7 110 10 170 7 127 11 195 19 317 4 49 8 130
11 180 9 156 14 239 21 338 9 150 12 197 19 325 4 66 9 123 11 126 3 6 -60 39
-76 39 -6 0 -33 11 -62 25 -28 14 -56 25 -61 25 -5 0 -23 6 -40 14 -80 36
-414 166 -428 166 -12 0 -15 -22 -15 -132z"/>
<path d="M16767 44494 c-1 -1 -33 -5 -72 -8 -79 -7 -106 -12 -187 -32 -13 -3
-33 -7 -45 -10 -28 -6 -156 -50 -203 -71 -293 -127 -505 -287 -651 -490 -44
-60 -117 -194 -123 -226 -2 -7 -6 -19 -9 -27 -54 -139 -66 -362 -32 -560 27
-152 83 -295 229 -587 109 -217 196 -367 237 -406 11 -10 19 -21 19 -25 0 -17
159 -172 230 -224 120 -89 275 -162 387 -183 15 -2 39 -7 53 -10 30 -7 274
-18 385 -19 l80 0 225 113 c241 120 373 203 485 303 102 91 225 231 225 256 0
6 4 12 8 14 12 5 72 106 72 121 0 7 4 17 9 23 12 12 61 161 61 185 0 11 -6 19
-14 19 -7 0 -35 9 -62 19 -62 25 -364 132 -384 136 -8 2 -44 15 -79 29 -36 14
-72 26 -81 26 -10 0 -25 -21 -40 -57 -110 -270 -437 -467 -710 -430 -126 17
-238 88 -326 209 -61 82 -242 454 -260 533 -25 106 -25 161 0 260 2 6 8 23 14
38 7 16 12 31 12 34 0 16 95 134 133 166 41 34 187 125 205 128 12 2 25 7 72
23 69 24 96 28 215 32 72 2 128 -1 161 -10 56 -15 71 -11 77 19 2 11 7 27 10
35 15 41 53 146 88 245 21 61 54 155 73 210 19 54 34 100 33 101 -11 11 -197
75 -197 68 0 -2 -10 0 -23 5 -40 15 -288 36 -300 25z"/>
<path d="M34769 43835 c-2 -1 -22 -6 -44 -9 -22 -4 -64 -13 -93 -22 -42 -12
-52 -18 -48 -32 12 -39 47 -168 51 -185 2 -9 6 -21 9 -25 3 -5 7 -19 9 -33 3
-13 10 -44 17 -69 7 -25 12 -46 11 -47 0 -2 6 -21 14 -44 9 -23 17 -51 20 -63
2 -12 10 -43 18 -71 l13 -50 95 -1 c84 0 128 -4 211 -19 99 -18 253 -83 347
-147 71 -48 155 -140 187 -205 25 -50 29 -70 29 -143 0 -80 -2 -90 -43 -170
-69 -139 -48 -135 -214 -39 -449 260 -533 306 -653 360 -49 21 -176 59 -245
71 -141 26 -320 10 -405 -35 -11 -6 -22 -12 -25 -12 -12 -2 -75 -39 -88 -51
-7 -8 -17 -14 -21 -14 -20 0 -153 -145 -203 -221 -71 -108 -144 -253 -153
-309 0 -3 -6 -21 -13 -40 -31 -94 -39 -267 -16 -350 8 -30 17 -63 19 -73 8
-34 76 -151 118 -202 62 -75 159 -159 268 -231 54 -35 101 -64 105 -64 4 0 41
-16 83 -36 93 -45 130 -60 174 -70 4 -1 8 -2 10 -4 1 -1 9 -3 17 -5 8 -2 26
-7 40 -10 14 -3 39 -9 55 -13 39 -9 272 -8 307 1 15 4 39 12 52 17 21 8 24 7
19 -8 -4 -9 -9 -19 -12 -22 -10 -8 -103 -172 -99 -175 3 -3 328 -193 403 -235
17 -10 58 -34 92 -54 34 -20 66 -36 71 -36 9 0 59 78 92 145 8 17 18 32 21 35
4 4 103 173 187 320 46 81 99 173 196 339 36 62 66 118 66 122 0 5 5 9 10 9 6
0 10 5 10 11 0 6 15 37 34 68 19 31 43 72 54 91 11 19 70 123 133 230 131 227
179 326 208 432 29 103 32 125 35 247 3 115 -6 181 -40 285 -41 126 -117 247
-224 360 -76 80 -201 186 -219 186 -5 0 -11 4 -13 9 -6 15 -160 106 -258 153
-117 56 -295 121 -295 108 0 -1 -12 3 -26 8 -14 6 -41 13 -60 16 -19 3 -45 9
-59 12 -27 7 -335 15 -341 9z m-197 -1573 c25 -11 138 -73 250 -138 256 -148
392 -226 397 -230 2 -2 -18 -41 -44 -86 -26 -46 -53 -92 -59 -103 -29 -53 -74
-100 -113 -117 -42 -18 -120 -24 -175 -13 -45 9 -168 55 -232 87 -265 130
-392 257 -385 386 4 86 76 192 152 227 43 20 148 13 209 -13z"/>
<path d="M14060 43137 c-113 -79 -236 -165 -275 -192 -38 -27 -79 -55 -91 -64
-20 -15 -19 -17 59 -131 44 -63 84 -116 89 -118 4 -2 8 -8 8 -12 0 -5 72 -112
160 -237 151 -217 387 -554 562 -803 73 -105 122 -192 135 -245 13 -51 10
-160 -7 -206 -30 -82 -97 -161 -185 -218 -22 -14 -42 -28 -45 -31 -3 -3 -32
-17 -65 -30 -147 -57 -316 -18 -414 96 -39 45 -221 304 -221 314 0 5 -6 13
-12 17 -7 4 -31 35 -53 68 -23 33 -61 89 -86 125 -26 36 -64 90 -85 121 -21
31 -93 133 -159 228 -66 94 -166 238 -223 319 -56 81 -109 156 -118 167 -8 11
-23 32 -32 48 -18 30 -25 33 -44 14 -7 -7 -20 -16 -28 -20 -8 -4 -51 -33 -96
-64 -107 -77 -220 -156 -324 -228 -47 -32 -95 -66 -107 -75 -21 -17 -21 -17
121 -221 217 -311 231 -332 358 -512 65 -93 118 -172 118 -177 0 -4 4 -10 8
-12 4 -1 93 -124 196 -273 247 -354 315 -435 478 -570 60 -50 222 -138 274
-150 10 -2 35 -9 54 -15 82 -25 241 -33 340 -16 110 18 256 82 381 167 138 94
236 225 274 369 0 3 4 14 7 25 14 43 22 125 21 223 l-1 103 31 -46 c85 -123
183 -259 188 -259 2 -1 101 66 219 149 118 82 244 169 280 194 98 66 96 63 70
105 -12 20 -27 42 -34 49 -7 6 -15 19 -19 27 -4 8 -22 35 -40 60 -18 25 -79
113 -137 195 -57 83 -108 152 -112 153 -4 2 -8 7 -8 12 0 5 -39 64 -87 132
-47 68 -107 152 -132 188 -24 36 -62 88 -83 117 -21 29 -38 56 -38 62 0 5 -3
11 -8 13 -4 2 -57 74 -117 161 -61 87 -140 201 -177 253 -38 52 -68 98 -68
103 0 5 -4 11 -8 13 -5 2 -40 48 -78 104 -183 266 -400 573 -404 574 -3 0 -98
-64 -210 -143z"/>
<path d="M37365 42388 c-31 -40 -61 -80 -68 -88 -18 -22 -105 -135 -166 -214
-30 -38 -60 -76 -67 -85 -7 -9 -129 -166 -271 -349 -142 -183 -437 -564 -655
-845 -219 -282 -397 -515 -395 -519 1 -3 81 -67 177 -142 96 -75 229 -178 295
-229 66 -52 125 -96 131 -100 11 -6 58 52 359 442 66 86 233 301 482 620 88
114 190 233 224 266 162 149 349 173 528 68 102 -59 198 -175 223 -267 10 -39
14 -43 30 -35 10 5 18 7 18 5 0 -3 12 -1 28 5 15 6 34 12 42 14 8 3 39 11 68
20 28 8 73 21 100 29 26 7 58 18 72 24 14 5 30 10 35 11 6 1 28 7 50 13 22 6
45 12 50 14 6 1 56 16 113 34 l103 32 -4 31 c-13 80 -22 108 -63 193 -96 197
-280 352 -480 403 -56 14 -101 18 -187 16 -61 -1 -123 -5 -137 -9 -14 -3 -47
-11 -75 -17 -27 -6 -56 -16 -62 -22 -7 -5 -13 -6 -13 -2 0 4 -8 1 -17 -6 -19
-15 13 29 130 180 l77 100 -67 54 c-38 29 -171 134 -298 232 -126 98 -235 182
-242 187 -7 6 -29 -14 -68 -64z"/>
<path d="M9495 40814 c-99 -96 -215 -209 -257 -251 l-78 -76 47 -51 c26 -28
165 -172 309 -321 473 -486 650 -669 720 -742 38 -40 173 -179 300 -310 238
-244 302 -310 644 -663 367 -379 440 -455 550 -566 l108 -111 141 136 c77 75
236 228 352 341 116 113 256 249 312 303 56 54 161 155 232 225 72 70 214 208
316 307 510 495 500 485 487 499 -7 7 -116 119 -243 250 -126 130 -233 235
-237 234 -9 -4 -366 -346 -695 -668 -103 -100 -618 -599 -628 -608 -3 -4 -268
266 -675 688 -58 60 -202 208 -320 330 -118 122 -261 269 -318 328 -57 59
-160 166 -230 237 -70 72 -244 250 -387 398 -143 147 -262 267 -265 267 -3 -1
-86 -79 -185 -176z"/>
<path d="M39225 40509 c-85 -12 -117 -19 -190 -44 -107 -36 -144 -51 -152 -59
-4 -4 -26 -15 -50 -26 -113 -50 -250 -157 -472 -369 -198 -189 -293 -295 -376
-421 -55 -82 -128 -227 -141 -278 -2 -9 -11 -42 -19 -72 -24 -86 -29 -127 -29
-255 0 -128 6 -180 30 -260 9 -27 18 -61 20 -74 3 -14 8 -29 12 -35 3 -6 7
-16 8 -23 2 -13 32 -108 41 -133 8 -20 8 -20 17 -53 11 -37 351 -380 446 -448
121 -88 179 -121 325 -184 124 -54 301 -99 440 -111 39 -3 75 -7 80 -8 6 0 9
10 8 24 -1 14 -4 79 -7 145 -4 66 -9 172 -12 235 -3 63 -7 138 -8 167 -1 53
-7 65 -29 69 -14 2 -61 12 -96 19 -46 9 -166 59 -226 94 -226 131 -377 355
-376 556 0 39 5 84 10 98 6 15 8 27 6 27 -9 0 46 116 78 162 l32 47 195 -199
c305 -312 932 -950 960 -976 29 -28 12 -40 186 136 203 207 337 386 434 578
44 89 106 254 116 310 2 12 6 34 9 50 24 121 21 328 -5 397 -5 14 -7 25 -5 25
8 0 -47 143 -80 210 -101 200 -319 419 -544 547 -70 40 -187 90 -229 98 -9 2
-17 4 -17 5 0 3 -68 18 -115 26 -52 9 -218 11 -275 3z m229 -694 c39 -8 143
-60 186 -93 210 -159 267 -370 160 -590 -31 -63 -126 -202 -138 -202 -9 0 -60
51 -445 443 l-274 278 56 44 c63 50 181 111 232 120 18 3 35 8 37 10 6 6 150
-2 186 -10z"/>
<path d="M40613 37507 c-106 -83 -192 -154 -192 -157 -1 -3 40 -57 90 -120
244 -308 559 -738 784 -1070 66 -96 123 -176 127 -178 4 -2 8 -7 8 -12 0 -5
49 -84 109 -177 239 -367 474 -757 688 -1143 90 -163 154 -281 191 -355 14
-27 28 -52 31 -55 7 -6 283 -560 334 -670 19 -41 56 -119 81 -173 25 -55 46
-100 46 -102 0 -2 20 -47 45 -99 25 -53 45 -98 45 -100 0 -3 16 -40 35 -83 20
-43 40 -87 44 -98 5 -11 16 -37 24 -58 9 -20 17 -40 18 -45 0 -4 7 -18 14 -32
21 -39 149 -358 255 -635 11 -27 25 -63 31 -80 7 -16 13 -34 15 -40 2 -5 10
-28 18 -50 60 -162 154 -429 160 -455 2 -8 13 -40 24 -70 46 -126 260 -815
277 -890 2 -8 17 -67 35 -130 17 -63 40 -149 51 -190 11 -41 21 -83 24 -92 3
-10 7 -27 10 -38 7 -27 12 -45 29 -110 15 -54 21 -84 33 -145 3 -16 9 -38 14
-47 5 -10 8 -18 5 -18 -3 0 1 -20 8 -45 8 -25 12 -45 10 -45 -2 0 1 -11 6 -26
6 -14 12 -37 15 -52 3 -15 7 -37 10 -49 3 -13 7 -33 10 -45 3 -13 8 -36 11
-52 2 -16 7 -32 9 -35 2 -4 6 -26 10 -51 4 -25 8 -47 10 -51 2 -3 7 -19 9 -35
3 -16 8 -40 11 -54 3 -14 7 -36 10 -50 3 -14 7 -36 10 -50 3 -14 7 -36 10 -50
3 -14 7 -36 10 -50 3 -14 7 -36 10 -50 3 -14 7 -36 10 -50 6 -30 14 -74 21
-115 2 -16 7 -41 9 -55 3 -14 7 -36 10 -50 3 -14 7 -36 10 -50 2 -14 7 -38 9
-55 11 -70 17 -101 21 -125 3 -14 7 -41 10 -60 3 -19 8 -46 10 -60 3 -14 7
-43 10 -65 7 -48 12 -80 19 -120 3 -16 7 -50 10 -75 3 -25 8 -56 10 -70 3 -14
7 -45 10 -70 3 -25 8 -56 11 -69 2 -13 7 -48 10 -76 2 -29 7 -68 10 -87 6 -35
7 -47 19 -163 4 -33 9 -76 11 -95 3 -19 7 -56 10 -82 3 -27 7 -67 10 -90 5
-42 8 -78 20 -208 3 -36 8 -85 10 -110 16 -171 40 -516 50 -730 26 -530 26
-1457 0 -1930 -2 -30 -6 -107 -9 -170 -3 -63 -8 -140 -11 -170 -2 -30 -7 -89
-10 -130 -2 -41 -7 -100 -9 -130 -3 -30 -8 -89 -11 -130 -4 -41 -8 -93 -11
-115 -2 -22 -6 -65 -9 -95 -9 -90 -13 -137 -19 -190 -3 -28 -9 -74 -12 -102
-10 -91 -25 -214 -29 -243 -2 -11 -6 -45 -9 -75 -4 -30 -9 -66 -11 -80 -2 -14
-6 -45 -9 -70 -3 -25 -8 -54 -10 -65 -4 -20 -14 -91 -22 -155 -2 -19 -6 -46
-9 -60 -2 -14 -7 -40 -10 -57 -3 -18 -7 -45 -10 -60 -2 -16 -7 -46 -9 -68 -3
-22 -8 -51 -11 -65 -2 -13 -7 -42 -11 -64 -3 -22 -7 -43 -9 -46 -1 -3 -6 -27
-9 -55 -4 -27 -9 -57 -11 -65 -2 -8 -6 -31 -9 -50 -3 -19 -7 -44 -10 -55 -2
-11 -11 -58 -20 -105 -9 -47 -18 -96 -21 -110 -7 -31 -24 -116 -30 -150 -9
-48 -14 -72 -19 -88 -3 -9 -8 -30 -11 -47 -13 -74 -16 -91 -21 -107 -3 -9 -7
-25 -9 -35 -4 -20 -40 -178 -54 -235 -5 -21 -7 -38 -5 -38 3 0 0 -8 -5 -17 -5
-10 -12 -34 -15 -54 -3 -20 -10 -48 -15 -63 -6 -14 -9 -26 -6 -26 2 0 -2 -18
-10 -40 -8 -22 -12 -40 -10 -40 3 0 0 -11 -5 -25 -5 -14 -12 -36 -14 -48 -16
-76 -41 -167 -46 -167 -3 0 -51 62 -105 138 -55 75 -103 142 -107 147 -8 10
-125 172 -286 395 -42 58 -80 110 -84 115 -5 6 -76 105 -159 220 -84 116 -191
264 -239 330 -47 66 -152 210 -232 320 -79 110 -203 280 -274 378 -71 98 -133
186 -139 195 -5 9 -13 19 -16 22 -5 4 -139 188 -265 365 -45 62 -188 259 -262
361 -24 32 -154 212 -290 400 -136 188 -255 352 -264 365 -38 52 -223 308
-276 383 -32 43 -82 113 -113 155 -31 42 -116 159 -189 261 -73 102 -136 187
-139 190 -3 3 -10 13 -16 22 -5 9 -44 63 -85 120 -41 57 -148 204 -238 328
-90 124 -170 234 -178 245 -15 22 -95 132 -351 485 -94 129 -279 386 -412 570
-133 184 -248 344 -257 355 -9 11 -85 117 -171 235 -85 118 -176 244 -202 280
-26 36 -143 198 -261 360 -252 348 -312 432 -323 445 -4 6 -92 127 -195 270
-142 199 -190 273 -200 310 -20 77 -43 157 -55 190 -7 17 -12 32 -12 35 0 6
-31 92 -46 128 -5 12 -13 32 -18 45 -61 158 -241 492 -312 581 -5 6 -35 47
-67 91 -234 321 -568 621 -922 829 -46 27 -297 155 -305 156 -3 0 -30 11 -61
25 -31 14 -60 25 -65 25 -5 0 -17 4 -27 10 -21 12 -249 87 -283 93 -13 3 -44
10 -69 17 -25 7 -54 14 -65 16 -63 14 -124 26 -150 29 -16 3 -41 7 -54 10 -13
2 -49 7 -80 10 -31 4 -67 9 -81 11 -14 2 -101 7 -195 9 -187 6 -297 12 -334
19 -12 3 -42 8 -65 10 -128 16 -187 24 -236 31 -50 8 -144 20 -230 30 -14 2
-38 5 -55 8 -16 3 -52 8 -80 12 -27 3 -63 7 -80 9 -101 14 -133 18 -156 22
-15 2 -47 6 -70 9 -44 6 -105 14 -144 20 -11 2 -42 6 -70 9 -80 10 -117 15
-160 21 -58 9 -84 13 -144 20 -30 4 -63 8 -74 11 -11 2 -41 6 -66 9 -25 3 -62
7 -81 10 -19 3 -55 7 -80 10 -25 3 -56 8 -70 10 -22 4 -70 11 -150 20 -53 6
-126 16 -150 20 -14 3 -45 7 -70 10 -49 6 -84 10 -145 20 -58 9 -93 13 -151
20 -28 3 -61 8 -74 10 -13 2 -44 7 -69 10 -62 7 -109 13 -151 19 -19 3 -55 8
-80 11 -25 4 -56 8 -70 10 -23 4 -82 11 -155 20 -16 2 -46 6 -65 9 -19 3 -57
8 -85 11 -27 3 -57 8 -65 10 -8 2 -40 7 -70 10 -30 3 -66 8 -80 10 -57 9 -121
18 -220 30 -30 3 -66 8 -80 10 -14 2 -45 7 -70 10 -25 3 -56 8 -70 10 -14 2
-50 7 -80 10 -30 4 -64 8 -75 10 -11 1 -42 6 -70 10 -27 3 -62 8 -76 11 -14 2
-52 6 -84 9 -33 4 -61 8 -65 10 -3 2 -33 6 -67 10 -34 3 -70 8 -81 10 -10 2
-43 6 -72 10 -29 4 -61 8 -71 10 -10 2 -44 6 -76 10 -32 3 -69 8 -83 10 -14 2
-43 6 -65 9 -22 3 -60 9 -85 12 -25 3 -56 7 -70 9 -14 1 -43 5 -65 9 -22 4
-56 9 -75 11 -19 2 -55 7 -80 10 -25 3 -61 8 -80 10 -19 2 -44 6 -55 9 -11 2
-49 7 -85 11 -36 4 -72 9 -81 10 -9 2 -40 6 -69 10 -29 4 -61 8 -71 10 -10 2
-45 6 -78 10 -33 3 -70 8 -82 10 -23 5 -71 12 -139 20 -48 6 -120 16 -150 21
-14 2 -49 6 -78 9 -29 4 -62 8 -74 10 -11 3 -46 7 -77 11 -31 3 -64 8 -75 10
-10 2 -44 6 -75 10 -31 3 -65 8 -76 10 -11 2 -40 6 -65 9 -25 3 -54 7 -65 9
-11 2 -49 7 -85 11 -36 4 -67 8 -70 10 -3 1 -32 6 -65 9 -33 4 -71 9 -85 11
-14 2 -45 6 -70 9 -25 3 -54 8 -66 10 -21 4 -121 17 -160 20 -11 1 -34 10 -50
21 -88 60 -428 225 -474 230 -3 0 -9 3 -15 6 -14 9 -212 70 -243 75 -14 3 -29
7 -32 9 -4 2 -22 7 -41 10 -19 3 -50 10 -69 15 -19 5 -57 12 -85 16 -27 3 -59
8 -70 10 -102 20 -520 26 -645 10 -36 -4 -76 -9 -90 -11 -36 -4 -91 -13 -120
-20 -14 -3 -36 -7 -50 -10 -23 -4 -42 -8 -87 -19 -10 -2 -52 -13 -93 -23 -50
-13 -88 -17 -115 -12 -63 11 -125 19 -181 25 l-50 5 1 -70 c1 -69 1 -69 -31
-85 -30 -14 -33 -14 -38 2 -14 49 -78 279 -81 292 -2 8 -13 49 -25 90 -11 41
-23 83 -26 93 -2 9 -6 25 -9 35 -13 49 -26 99 -30 116 -2 11 -11 40 -19 65
-13 42 -24 85 -26 103 0 4 -7 27 -16 50 -8 23 -16 53 -19 67 -3 14 -12 51 -21
81 -26 91 -84 304 -89 323 -5 21 -6 24 -34 123 l-21 72 -83 -25 c-45 -13 -90
-26 -100 -28 -10 -2 -52 -14 -95 -25 -111 -31 -254 -70 -275 -75 -9 -2 -21 -6
-25 -9 -5 -3 -19 -7 -33 -9 -35 -7 -108 -26 -156 -42 -23 -8 -52 -16 -65 -19
-13 -2 -41 -9 -63 -15 -22 -6 -44 -11 -50 -12 -5 -1 -32 -10 -60 -19 -27 -9
-52 -17 -55 -17 -6 1 -99 -23 -120 -30 -18 -7 -28 -10 -57 -17 -13 -3 -31 -8
-40 -11 -52 -14 -99 -26 -108 -28 -5 -1 -16 -6 -22 -10 -7 -5 -13 -6 -13 -3 0
3 -11 1 -25 -4 -14 -5 -36 -12 -48 -14 -33 -7 -277 -74 -314 -86 -18 -6 -40
-13 -50 -15 -46 -10 -150 -37 -163 -42 -19 -8 -30 -11 -59 -17 -13 -3 -49 -13
-80 -22 -31 -9 -64 -18 -74 -19 -9 -2 -21 -6 -25 -9 -5 -3 -19 -7 -33 -9 -13
-3 -44 -10 -69 -17 -25 -7 -45 -11 -45 -10 0 1 -13 -4 -30 -10 -16 -7 -37 -13
-45 -15 -8 -2 -42 -10 -75 -19 -33 -9 -70 -19 -82 -22 -12 -2 -34 -9 -47 -14
-22 -8 -24 -12 -16 -42 7 -26 56 -204 85 -308 3 -8 9 -31 14 -50 5 -19 21 -78
35 -130 29 -104 37 -138 40 -160 1 -12 -89 -46 -174 -65 -8 -1 -35 -9 -60 -16
-25 -7 -49 -13 -55 -15 -5 -1 -36 -9 -67 -18 -32 -9 -83 -23 -114 -31 -203
-55 -242 -66 -271 -75 -18 -6 -41 -13 -53 -15 -39 -9 -25 -5 -445 -121 -71
-19 -139 -38 -150 -42 -23 -7 -21 -6 -60 -16 -16 -4 -50 -13 -75 -20 -25 -7
-83 -23 -130 -36 -47 -12 -106 -29 -131 -36 -25 -8 -54 -16 -65 -19 -10 -2
-44 -11 -74 -19 -30 -8 -147 -40 -260 -70 -113 -31 -219 -61 -237 -66 -18 -6
-40 -13 -50 -14 -10 -2 -38 -10 -63 -17 -25 -7 -47 -13 -50 -14 -7 -1 -213
-56 -228 -61 -14 -4 -11 -21 19 -123 25 -82 25 -81 -13 -76 -18 2 -62 7 -98
10 -36 3 -81 7 -100 10 -19 2 -64 7 -100 10 -36 3 -81 8 -100 10 -45 5 -209
21 -310 30 -25 2 -70 7 -100 10 -30 3 -77 8 -105 11 -27 2 -72 7 -100 9 -97
10 -234 23 -310 30 -33 3 -76 8 -95 10 -19 3 -62 7 -95 10 -33 3 -80 7 -105
10 -25 3 -72 7 -105 10 -33 3 -76 8 -95 10 -19 2 -66 7 -105 10 -38 4 -83 8
-100 10 -47 5 -178 18 -201 19 -11 1 -45 22 -75 47 -30 25 -70 56 -89 71 -38
28 -202 118 -222 122 -7 2 -20 6 -28 9 -171 70 -425 91 -618 53 -116 -24 -372
-124 -372 -147 0 -4 -10 -11 -22 -15 -30 -9 -150 -106 -207 -167 -154 -163
-268 -394 -296 -597 -5 -38 -16 -55 -66 -105 -33 -33 -779 -782 -1659 -1665
l-1599 -1605 552 -552 c304 -304 557 -553 563 -553 13 0 -180 -193 1612 1607
l1564 1570 36 -6 c45 -8 176 -7 257 3 55 6 189 38 225 53 8 3 20 7 26 8 6 2
42 17 80 35 90 41 213 124 291 195 60 54 65 56 105 51 43 -6 81 -10 208 -21
36 -3 81 -7 100 -10 19 -2 64 -7 100 -10 36 -3 81 -8 100 -10 19 -3 62 -7 95
-10 33 -3 80 -7 105 -10 25 -3 74 -7 110 -11 97 -8 139 -12 200 -19 30 -3 75
-8 100 -10 25 -2 68 -6 95 -9 160 -17 190 -20 315 -31 36 -3 81 -8 100 -10 19
-2 64 -7 100 -10 36 -3 81 -8 100 -10 19 -3 64 -7 100 -10 36 -3 81 -8 101
-10 20 -3 67 -7 105 -10 38 -4 83 -8 99 -9 42 -5 162 -17 210 -22 22 -2 67 -6
100 -9 99 -9 106 -12 111 -38 1 -7 10 -39 19 -72 9 -33 18 -67 20 -76 2 -9 13
-49 25 -89 12 -40 23 -80 25 -89 2 -9 9 -36 16 -61 7 -25 13 -49 15 -55 1 -8
23 -87 29 -105 1 -3 4 -12 8 -20 3 -8 8 -26 10 -40 7 -36 12 -52 46 -175 17
-60 34 -121 37 -135 3 -14 14 -56 25 -95 21 -72 87 -308 93 -335 2 -8 11 -42
20 -75 9 -33 19 -67 21 -75 2 -8 13 -49 25 -90 11 -41 23 -84 25 -94 2 -10 9
-33 15 -51 6 -18 12 -41 14 -51 3 -16 17 -66 32 -119 3 -10 20 -74 28 -105 14
-52 37 -135 56 -200 11 -41 23 -84 25 -94 3 -10 16 -60 31 -110 14 -50 27 -98
29 -106 2 -8 15 -58 29 -110 15 -52 29 -103 31 -113 2 -9 6 -21 9 -25 3 -5 7
-19 10 -33 9 -45 14 -64 36 -139 11 -41 23 -83 25 -93 2 -9 6 -21 10 -26 3 -5
-12 -23 -32 -40 -35 -29 -475 -371 -535 -416 -37 -29 -550 -427 -568 -442 -8
-7 -103 -80 -210 -162 -107 -83 -199 -154 -205 -159 -33 -27 -254 -199 -330
-257 -49 -38 -93 -73 -96 -78 -9 -12 -38 -11 -129 6 -70 12 -258 14 -335 3
-84 -12 -117 -20 -199 -47 -109 -36 -226 -96 -309 -159 -49 -36 -68 -45 -84
-39 -11 4 -33 10 -49 12 -16 3 -60 13 -99 22 -38 9 -81 19 -95 21 -14 3 -50
11 -80 19 -30 8 -66 16 -80 19 -14 3 -74 17 -135 31 -60 14 -130 29 -155 35
-57 12 -70 15 -155 35 -38 9 -81 19 -95 21 -14 3 -50 11 -80 19 -45 11 -147
35 -263 60 -10 2 -26 6 -35 9 -9 3 -33 8 -52 11 -19 3 -69 15 -110 25 -41 10
-86 21 -100 24 -39 8 -72 15 -105 23 -16 4 -32 7 -35 8 -3 1 -18 4 -35 8 -16
4 -41 10 -55 13 -14 3 -34 7 -45 9 -11 3 -29 7 -40 9 -11 2 -40 9 -65 16 -25
7 -56 14 -70 17 -14 2 -83 18 -155 34 -71 17 -139 33 -150 35 -20 4 -49 10
-83 18 -9 2 -69 16 -132 31 -63 14 -122 28 -130 30 -29 7 -155 36 -175 40 -62
12 -84 17 -120 27 -22 6 -49 12 -60 13 -11 2 -67 15 -125 28 -135 33 -329 78
-355 83 -11 2 -33 7 -50 11 -16 4 -32 7 -35 8 -3 1 -18 4 -35 8 -55 13 -80 19
-100 22 -12 1 -48 10 -80 18 -54 14 -162 39 -223 52 -12 3 -30 7 -40 9 -38 9
-208 48 -231 52 -14 3 -28 7 -33 10 -9 6 -15 -6 -22 -46 -8 -39 -15 -70 -20
-88 -3 -9 -7 -28 -10 -42 -2 -14 -10 -47 -16 -75 -6 -27 -14 -61 -16 -75 -3
-14 -9 -38 -14 -55 -5 -16 -12 -45 -15 -63 -3 -19 -15 -73 -26 -120 -11 -48
-23 -98 -25 -112 -3 -14 -10 -43 -16 -65 -5 -22 -11 -47 -13 -55 -6 -30 -14
-67 -30 -134 -9 -38 -18 -77 -20 -85 -2 -9 -9 -38 -15 -66 -6 -27 -14 -59 -16
-70 -2 -11 -6 -29 -8 -40 -2 -11 -9 -38 -14 -60 -6 -22 -18 -74 -27 -115 -9
-41 -18 -84 -21 -95 -18 -70 -17 -73 23 -84 49 -12 102 -23 105 -21 2 1 15 -3
29 -8 14 -6 41 -13 61 -16 19 -3 61 -12 94 -21 32 -9 79 -20 104 -25 25 -5
106 -23 180 -40 74 -18 146 -34 160 -37 42 -8 44 -9 65 -16 11 -3 37 -8 59
-12 21 -3 41 -7 45 -10 4 -2 18 -6 32 -9 13 -2 56 -12 94 -20 39 -9 81 -19 95
-22 14 -3 41 -9 60 -14 19 -5 46 -11 60 -14 14 -3 36 -8 50 -11 14 -3 37 -7
52 -10 15 -3 38 -9 52 -15 15 -5 26 -8 26 -5 0 2 21 -2 48 -10 26 -7 65 -16
87 -21 22 -4 45 -8 50 -10 25 -7 147 -35 175 -40 14 -3 50 -11 80 -19 30 -8
67 -16 83 -19 15 -4 39 -8 55 -11 15 -3 45 -11 67 -17 22 -5 49 -12 60 -14 11
-2 31 -7 45 -10 14 -3 43 -10 65 -15 22 -5 49 -12 60 -14 11 -2 33 -7 48 -10
16 -3 84 -19 152 -35 68 -16 134 -31 147 -34 27 -6 40 -9 129 -30 37 -8 78
-17 90 -20 13 -3 33 -7 44 -10 87 -20 123 -28 138 -31 10 -2 26 -6 35 -9 17
-5 65 -16 92 -20 8 -1 31 -6 50 -11 19 -5 37 -9 40 -10 3 -1 19 -4 35 -8 17
-4 40 -10 52 -12 34 -7 50 -11 145 -34 48 -11 99 -23 113 -25 14 -3 33 -7 43
-10 9 -3 28 -7 42 -10 14 -2 57 -12 95 -21 39 -9 81 -19 95 -21 14 -3 50 -11
80 -19 30 -8 66 -16 80 -19 14 -3 34 -7 45 -10 90 -21 123 -28 140 -32 18 -3
71 -15 85 -19 4 -1 74 -17 90 -20 121 -26 123 -27 195 -99 164 -166 353 -274
567 -322 10 -2 28 -6 40 -9 97 -22 357 -22 421 0 7 3 25 7 40 9 180 31 442
180 576 330 14 16 31 34 36 40 86 96 187 280 219 401 5 18 17 50 24 62 4 7
115 96 247 198 132 102 247 191 255 198 8 7 146 113 305 236 160 124 297 232
306 240 9 9 26 23 39 31 12 8 99 75 194 149 94 73 203 158 241 187 39 30 111
86 160 124 152 119 171 129 298 155 9 2 21 6 25 9 5 3 19 7 33 9 13 3 44 11
69 18 25 7 50 13 55 15 6 1 35 9 65 18 63 17 237 65 260 71 8 2 40 11 70 19
30 9 66 18 80 22 14 3 46 12 71 20 25 8 54 16 65 18 10 2 39 10 64 17 25 7 50
13 55 15 6 1 53 14 105 29 52 14 102 28 110 30 8 2 15 4 15 5 0 1 7 3 15 5 8
1 92 24 185 49 94 26 213 58 265 72 52 14 120 33 150 42 30 8 60 17 66 18 6 1
38 10 70 19 33 9 66 19 74 21 8 2 49 13 90 24 41 11 82 22 90 24 8 2 35 10 60
17 25 7 50 13 55 15 21 4 97 25 110 30 8 4 15 -5 20 -25 3 -17 6 -33 6 -36 -1
-3 6 -19 14 -35 9 -17 13 -30 11 -30 -3 0 1 -18 9 -40 8 -22 15 -44 15 -48 1
-14 20 -87 30 -119 6 -18 13 -41 15 -53 13 -56 42 -161 54 -191 5 -15 7 -30 4
-33 -4 -3 -4 -6 -2 -6 7 0 432 116 494 135 28 9 62 18 75 20 14 3 57 14 95 25
39 12 77 23 85 24 12 3 84 23 110 31 3 1 19 5 35 9 17 5 100 27 185 51 177 49
209 56 213 53 2 -2 11 3 20 11 10 7 17 11 17 8 0 -4 18 0 40 8 22 8 40 12 40
10 0 -3 12 0 28 6 15 6 34 12 42 14 8 2 58 15 110 30 83 23 172 47 220 59 72
18 107 28 120 33 8 3 20 7 25 8 6 2 46 13 90 25 44 12 87 23 95 25 8 3 47 13
85 24 39 10 122 33 185 50 63 18 120 33 125 35 48 14 103 29 115 31 8 2 28 8
43 14 24 9 26 14 17 31 -6 11 -9 20 -6 20 2 0 -3 21 -11 48 -16 51 -43 148
-48 172 -1 8 -15 58 -29 110 -15 52 -29 102 -31 110 -8 27 -26 95 -30 113 -2
9 -6 21 -9 25 -3 5 -8 22 -11 38 -3 16 -7 34 -9 39 -2 6 -6 24 -11 40 -4 17
-21 77 -37 135 -39 139 -39 140 -45 174 -3 16 -2 26 3 23 5 -3 34 -8 64 -12
87 -11 103 -13 135 -19 57 -9 115 -18 138 -21 68 -9 125 -17 147 -21 14 -2 43
-6 65 -9 22 -3 51 -7 64 -10 14 -2 45 -7 70 -10 25 -3 57 -7 71 -10 13 -3 42
-7 65 -10 48 -7 76 -11 135 -20 25 -4 56 -8 70 -10 14 -2 45 -7 70 -10 25 -4
54 -8 65 -10 11 -1 38 -5 60 -8 22 -4 58 -9 80 -12 23 -3 50 -7 61 -9 12 -2
45 -8 75 -11 77 -11 90 -13 124 -18 17 -3 50 -8 75 -11 25 -3 54 -8 65 -10 11
-2 45 -7 75 -11 30 -4 62 -9 71 -10 9 -2 40 -6 69 -10 29 -4 62 -9 74 -11 12
-2 41 -7 66 -10 25 -3 59 -8 75 -10 17 -3 45 -7 63 -10 17 -2 47 -6 65 -8 17
-3 46 -7 62 -10 17 -3 48 -7 70 -11 23 -3 50 -7 61 -9 12 -2 45 -7 75 -11 30
-3 61 -8 69 -10 8 -2 35 -6 60 -9 46 -5 105 -14 150 -22 14 -2 45 -7 70 -10
25 -3 59 -7 75 -10 17 -3 46 -7 65 -10 19 -2 46 -6 60 -9 14 -3 45 -7 70 -10
25 -3 56 -7 70 -10 23 -4 95 -15 130 -20 48 -6 128 -18 145 -21 11 -2 40 -6
65 -9 25 -3 61 -8 80 -11 60 -10 74 -12 120 -18 25 -3 54 -8 65 -10 18 -3 102
-15 150 -21 11 -2 40 -6 65 -10 25 -4 56 -9 70 -10 14 -2 39 -5 55 -8 17 -4
50 -8 75 -11 25 -3 54 -8 66 -10 12 -2 45 -7 74 -11 29 -4 62 -9 74 -11 11 -2
37 -6 58 -9 21 -3 55 -7 76 -10 21 -3 47 -7 57 -9 18 -3 89 -14 150 -22 61 -8
122 -17 140 -20 11 -2 40 -7 65 -10 25 -3 57 -7 73 -9 62 -11 84 -14 127 -20
61 -8 87 -12 138 -20 23 -4 52 -8 65 -10 12 -2 40 -5 62 -9 22 -3 58 -8 80
-11 22 -3 49 -7 61 -9 12 -2 45 -8 75 -11 30 -4 63 -9 74 -11 44 -7 151 -22
209 -30 22 -3 43 -7 48 -10 4 -3 42 -53 84 -111 42 -59 80 -111 85 -117 5 -6
50 -67 99 -136 86 -119 283 -393 314 -435 8 -11 164 -227 347 -480 183 -253
337 -464 341 -470 4 -5 27 -37 51 -70 24 -33 87 -120 140 -193 53 -73 97 -137
97 -141 0 -5 4 -11 8 -13 5 -1 51 -61 102 -133 52 -71 177 -245 278 -385 346
-477 468 -645 644 -888 97 -134 184 -254 192 -265 9 -12 44 -60 78 -107 34
-47 82 -114 108 -150 26 -36 149 -207 275 -380 126 -173 240 -332 254 -352 14
-20 91 -126 170 -235 151 -207 268 -369 719 -993 149 -206 275 -379 279 -385
5 -5 109 -149 233 -320 123 -170 271 -375 329 -455 58 -80 142 -197 188 -260
112 -155 103 -143 181 -250 38 -52 212 -293 387 -535 175 -242 322 -441 327
-443 4 -2 8 -8 8 -12 0 -7 213 -306 252 -355 5 -5 88 -120 185 -255 97 -135
180 -246 185 -248 4 -2 8 -8 8 -13 0 -7 159 -232 208 -294 4 -5 50 -68 101
-140 52 -71 110 -152 131 -180 20 -27 90 -124 156 -215 65 -91 122 -169 127
-175 4 -5 59 -82 123 -170 63 -88 121 -168 129 -177 8 -10 27 -37 42 -60 15
-24 30 -45 33 -48 3 -3 23 -30 45 -60 21 -30 62 -86 90 -125 28 -38 130 -178
225 -310 95 -132 233 -322 307 -423 73 -101 133 -187 133 -192 0 -4 4 -10 8
-12 4 -2 62 -77 128 -169 l121 -165 -59 -82 c-32 -45 -58 -84 -58 -86 0 -12
405 -297 408 -287 2 6 9 17 16 24 6 6 61 82 122 167 330 464 601 878 883 1350
35 58 70 116 79 130 9 14 17 27 17 30 0 3 8 16 16 30 9 14 26 43 39 65 12 22
32 56 43 75 11 19 31 55 45 80 13 25 39 70 56 100 18 30 35 62 39 70 4 8 18
33 30 55 134 233 462 882 597 1180 13 28 42 92 66 142 24 51 44 95 44 97 0 4
17 42 82 186 51 113 294 702 302 735 2 6 9 24 15 40 7 17 14 37 16 46 2 9 8
25 14 35 5 11 26 64 46 119 20 55 41 111 47 125 5 14 17 45 25 70 8 25 21 59
29 77 8 17 14 35 14 39 0 4 14 45 30 90 17 46 33 91 35 101 2 10 15 48 29 86
14 37 22 67 19 67 -3 0 -1 6 4 13 9 10 23 55 23 72 1 3 9 25 20 50 11 25 20
47 20 50 0 3 2 10 5 17 4 13 38 129 40 138 1 3 18 59 39 124 21 66 40 127 41
135 2 9 4 16 5 16 1 0 3 7 5 15 2 8 25 87 51 175 25 88 47 165 48 170 2 6 8
30 15 55 7 25 15 52 17 60 2 8 11 42 20 75 9 33 17 65 18 70 1 6 5 19 9 30 3
11 8 31 11 45 10 49 16 73 30 124 8 28 17 62 20 76 3 14 10 45 17 70 6 25 13
53 15 63 2 9 6 26 9 37 3 11 7 29 10 41 2 11 6 28 9 37 3 9 8 29 11 45 7 36
19 91 29 135 14 57 26 111 31 141 3 19 7 37 9 40 2 3 7 22 10 41 8 46 10 60
45 230 17 80 33 161 36 180 3 19 10 58 15 85 15 78 20 108 25 140 3 17 7 41
10 55 7 33 32 182 41 240 3 25 8 54 10 65 2 11 6 36 8 55 13 83 16 106 21 130
2 14 7 45 10 70 3 25 7 54 9 66 2 12 7 43 10 70 4 27 8 63 10 79 22 168 40
315 50 410 4 33 9 76 11 95 5 36 10 86 20 200 3 36 8 81 10 100 2 19 7 71 10
115 3 44 8 100 10 125 4 43 10 117 20 259 29 407 39 775 39 1336 0 436 -5 704
-19 990 -7 143 -16 294 -19 340 -3 28 -8 91 -11 140 -14 190 -14 197 -30 370
-15 158 -31 317 -40 385 -2 19 -7 60 -10 90 -3 30 -8 71 -10 90 -3 19 -7 55
-10 80 -3 25 -7 61 -10 80 -3 19 -7 56 -10 81 -3 25 -8 56 -10 70 -3 13 -7 44
-10 69 -3 25 -7 56 -10 70 -2 14 -7 43 -10 65 -3 23 -7 50 -9 60 -2 11 -7 43
-10 70 -9 61 -16 111 -22 139 -2 11 -6 37 -9 56 -3 19 -7 46 -10 60 -3 14 -8
41 -11 60 -3 19 -6 44 -8 55 -4 23 -24 128 -31 165 -3 14 -7 39 -10 55 -2 17
-7 41 -10 55 -3 14 -8 39 -11 55 -2 17 -7 41 -9 55 -3 14 -7 36 -10 50 -3 14
-7 36 -10 50 -3 14 -7 36 -10 50 -7 32 -25 118 -31 150 -5 23 -19 86 -30 135
-3 11 -7 29 -9 40 -8 44 -16 81 -21 97 -3 9 -7 25 -9 35 -2 10 -9 41 -15 68
-6 28 -13 59 -16 70 -2 11 -13 58 -25 105 -11 47 -23 95 -25 107 -2 12 -9 34
-14 48 -5 14 -7 25 -5 25 2 0 0 11 -5 25 -5 14 -12 36 -15 48 -2 12 -12 49
-20 82 -9 33 -18 68 -20 79 -2 10 -12 44 -21 75 -17 61 -18 64 -34 131 -6 25
-15 56 -20 70 -6 14 -12 34 -14 45 -2 11 -11 46 -21 77 -9 32 -16 61 -17 65 0
5 -6 24 -14 43 -8 19 -15 37 -15 40 0 3 -4 21 -9 40 -5 19 -10 38 -10 42 0 5
-9 32 -19 60 -10 29 -29 87 -41 128 -32 107 -182 563 -189 575 -3 6 -6 15 -7
20 -4 19 -122 351 -141 395 -3 8 -7 17 -8 20 -1 3 -4 12 -8 20 -3 8 -14 40
-25 70 -11 30 -26 69 -33 85 -6 17 -13 35 -14 40 -4 16 -205 514 -230 570 -13
28 -35 79 -50 115 -15 36 -32 76 -38 90 -6 14 -11 27 -12 30 -1 3 -12 28 -25
55 -34 75 -61 135 -81 181 -96 225 -527 1094 -629 1269 -10 17 -32 57 -50 90
-18 33 -41 74 -51 92 -10 18 -35 63 -55 100 -20 37 -45 80 -56 95 -10 14 -18
29 -18 32 0 4 -20 39 -43 79 -24 39 -63 106 -87 147 -24 41 -47 77 -52 78 -4
2 -8 8 -8 14 0 9 -120 211 -205 343 -120 189 -141 220 -147 223 -5 2 -8 8 -8
13 0 10 -297 460 -310 469 -3 3 -9 12 -13 20 -4 8 -26 42 -50 75 -23 33 -76
107 -117 165 -76 108 -175 245 -210 291 -11 15 -64 85 -118 156 -148 197 -346
452 -352 453 -3 0 -91 -69 -197 -153z"/>
<path d="M9730 37453 c-220 -283 -403 -532 -656 -893 -206 -293 -674 -1021
-674 -1049 0 -5 -4 -11 -8 -13 -5 -1 -28 -37 -52 -78 -24 -41 -69 -119 -102
-173 -32 -54 -58 -99 -58 -101 0 -2 -29 -54 -65 -115 -36 -62 -65 -114 -65
-117 0 -2 -10 -21 -23 -42 -22 -34 -50 -86 -194 -357 -92 -172 -387 -772 -468
-950 -42 -93 -88 -195 -102 -225 -34 -74 -233 -541 -233 -546 0 -3 -8 -24 -18
-47 -20 -45 -66 -159 -68 -167 0 -3 -6 -18 -13 -35 -16 -37 -36 -89 -141 -370
-94 -253 -155 -424 -185 -525 -1 -3 -4 -12 -8 -20 -7 -17 -58 -173 -107 -325
-32 -100 -98 -317 -105 -345 -2 -8 -20 -69 -39 -135 -33 -111 -48 -164 -77
-270 -7 -22 -17 -60 -25 -85 -12 -41 -40 -149 -50 -192 -2 -10 -6 -27 -9 -38
-3 -11 -7 -29 -10 -40 -3 -11 -7 -29 -10 -40 -3 -11 -7 -29 -10 -40 -3 -11 -7
-29 -10 -41 -2 -11 -7 -29 -10 -39 -3 -10 -7 -27 -9 -37 -2 -10 -18 -74 -35
-143 -16 -69 -32 -136 -35 -150 -7 -37 -15 -72 -22 -100 -3 -14 -7 -34 -9 -45
-6 -31 -14 -65 -19 -83 -3 -9 -8 -30 -11 -47 -6 -35 -11 -60 -19 -95 -3 -14
-8 -37 -10 -53 -3 -15 -7 -35 -10 -45 -3 -9 -7 -33 -10 -52 -3 -19 -8 -46 -11
-60 -3 -14 -7 -36 -10 -50 -3 -14 -7 -36 -10 -50 -10 -47 -17 -85 -21 -105 -1
-11 -5 -33 -8 -50 -3 -16 -7 -41 -10 -55 -3 -13 -8 -42 -11 -65 -3 -22 -8 -47
-10 -55 -2 -8 -7 -35 -10 -60 -3 -25 -8 -52 -10 -60 -2 -8 -7 -33 -10 -55 -3
-23 -7 -52 -10 -65 -6 -33 -17 -100 -20 -130 -2 -14 -5 -38 -8 -55 -3 -16 -9
-50 -12 -75 -3 -25 -8 -56 -10 -70 -6 -38 -15 -103 -21 -146 -2 -22 -7 -57
-10 -79 -3 -22 -7 -56 -9 -75 -2 -19 -7 -53 -10 -75 -3 -22 -8 -64 -11 -94 -3
-30 -7 -62 -9 -71 -2 -10 -6 -53 -10 -96 -4 -43 -9 -87 -10 -96 -2 -9 -7 -52
-11 -95 -3 -43 -8 -89 -9 -103 -2 -14 -6 -59 -9 -100 -4 -41 -9 -95 -11 -120
-12 -133 -31 -404 -41 -595 -11 -220 -12 -248 -20 -520 -15 -525 -7 -1147 21
-1645 3 -69 8 -145 10 -170 2 -25 6 -92 10 -150 3 -58 8 -121 10 -140 2 -19 6
-73 10 -120 3 -47 8 -101 10 -120 2 -19 6 -66 9 -105 4 -38 8 -86 11 -105 2
-19 6 -60 9 -90 5 -49 13 -121 21 -190 2 -14 6 -56 10 -93 3 -37 8 -78 11 -90
2 -12 7 -45 9 -73 3 -28 8 -61 10 -74 2 -13 7 -46 11 -74 3 -28 7 -60 9 -71 1
-11 6 -42 10 -70 3 -27 9 -63 12 -80 5 -34 7 -47 18 -124 3 -30 9 -63 11 -75
2 -12 7 -37 10 -56 2 -19 7 -46 9 -60 3 -14 8 -42 11 -64 3 -21 7 -48 10 -59
2 -12 6 -37 9 -57 3 -20 8 -47 10 -60 3 -14 8 -41 11 -60 3 -19 7 -43 10 -53
3 -10 7 -30 9 -45 4 -28 11 -69 20 -112 3 -14 7 -36 10 -50 8 -46 28 -145 40
-200 3 -14 7 -34 9 -45 3 -11 12 -56 21 -100 9 -44 19 -89 21 -100 2 -11 7
-33 11 -50 4 -16 7 -32 8 -35 1 -3 4 -18 8 -35 4 -16 9 -39 11 -50 2 -11 12
-51 21 -90 9 -38 18 -77 20 -86 2 -8 10 -44 19 -80 9 -35 18 -73 20 -84 8 -40
125 -494 133 -515 3 -8 8 -21 10 -27 7 -27 10 -39 18 -68 8 -31 35 -126 80
-280 36 -124 91 -303 127 -410 16 -49 31 -97 33 -105 2 -8 17 -55 35 -105 17
-49 33 -97 35 -105 2 -8 4 -15 5 -15 1 0 3 -7 5 -15 2 -8 28 -85 58 -170 84
-235 104 -292 118 -325 7 -16 13 -34 15 -40 4 -18 115 -309 129 -340 8 -16 28
-66 45 -110 18 -44 37 -91 42 -105 6 -14 12 -29 13 -35 2 -5 18 -46 37 -90 19
-44 59 -136 88 -205 29 -69 66 -153 81 -188 16 -34 30 -65 31 -70 2 -6 38 -86
118 -257 15 -33 42 -91 60 -130 50 -109 272 -555 349 -703 151 -287 332 -616
343 -620 4 -2 8 -8 8 -13 0 -15 254 -450 368 -629 19 -30 45 -71 57 -90 100
-159 169 -266 298 -460 82 -124 153 -227 157 -230 3 -3 9 -12 12 -20 4 -8 84
-124 180 -257 95 -133 180 -252 188 -264 8 -12 20 -27 25 -33 6 -6 44 -56 85
-111 168 -224 434 -561 608 -770 98 -118 135 -161 143 -163 8 -3 208 159 339
276 l45 39 -50 60 c-836 1011 -1426 1855 -2006 2871 -66 114 -67 116 -139 247
-18 33 -43 78 -55 100 -12 22 -44 81 -70 130 -26 50 -64 119 -83 155 -46 85
-268 529 -322 645 -166 354 -279 606 -279 620 0 3 -7 18 -15 33 -15 27 -90
206 -142 337 -15 39 -33 79 -40 90 -7 11 -13 23 -13 28 1 10 -33 99 -41 112
-4 6 -11 21 -15 35 -7 22 -51 138 -86 225 -7 17 -13 35 -15 40 -1 6 -14 42
-29 80 -15 39 -33 88 -40 110 -7 22 -25 72 -40 110 -14 39 -28 77 -30 85 -4
16 -83 246 -92 270 -4 8 -7 17 -8 20 0 3 -17 57 -38 120 -20 63 -36 117 -35
120 1 3 -4 15 -11 28 -7 13 -14 31 -16 40 -7 31 -32 115 -65 217 -17 55 -33
107 -35 115 -1 8 -13 49 -25 90 -12 41 -28 100 -37 130 -8 30 -21 75 -28 100
-7 25 -17 59 -21 75 -4 17 -8 35 -10 40 -2 6 -8 28 -14 50 -6 22 -13 48 -15
58 -7 26 -14 55 -20 78 -2 11 -7 29 -10 39 -3 10 -7 27 -9 37 -2 10 -9 38 -16
63 -7 25 -13 52 -15 60 -2 8 -10 42 -18 75 -9 33 -18 71 -21 85 -3 14 -10 45
-16 70 -6 25 -13 56 -16 70 -3 14 -10 43 -16 65 -5 22 -12 51 -15 65 -2 14 -9
45 -14 70 -13 55 -18 78 -24 110 -3 14 -7 36 -10 50 -3 14 -8 36 -11 50 -4 21
-11 57 -20 95 -1 6 -5 24 -8 40 -3 17 -10 55 -16 85 -6 30 -13 66 -15 80 -2
14 -7 36 -10 50 -3 14 -9 50 -15 80 -6 30 -12 65 -14 76 -5 24 -13 76 -22 132
-3 20 -7 44 -9 52 -2 8 -7 33 -10 55 -3 23 -7 52 -10 65 -3 13 -7 42 -10 65
-4 22 -9 54 -11 70 -3 17 -7 41 -9 55 -2 14 -6 39 -9 55 -3 17 -7 50 -10 75
-3 25 -8 54 -10 65 -2 11 -7 45 -10 76 -4 31 -9 67 -11 80 -3 13 -7 47 -10 74
-4 28 -8 61 -10 75 -3 14 -7 53 -10 85 -3 33 -7 69 -9 80 -2 12 -7 52 -10 90
-4 39 -9 86 -11 105 -5 33 -9 81 -19 188 -3 26 -7 74 -11 107 -18 192 -39 482
-51 710 -10 201 -12 241 -20 510 -12 419 -7 1070 11 1415 1 30 6 114 9 185 4
72 9 157 11 190 3 33 7 94 10 135 11 167 15 217 20 260 2 25 7 74 10 110 3 36
7 86 10 113 3 26 7 70 10 97 3 28 8 74 11 103 3 28 7 68 9 87 11 103 16 147
20 170 2 14 7 50 10 80 3 30 8 66 10 80 2 14 7 50 10 80 6 52 9 71 19 138 3
15 7 50 11 77 3 28 7 59 9 70 4 21 12 75 22 139 3 21 7 48 10 59 2 12 6 39 9
62 3 22 8 51 10 65 3 14 7 39 10 55 3 17 7 41 10 55 2 13 7 40 10 60 3 20 8
47 10 60 3 14 7 36 10 50 2 14 7 39 9 55 3 17 8 41 11 55 2 13 7 42 11 64 3
22 7 43 9 46 2 3 6 21 9 40 3 19 8 46 11 60 3 14 7 36 10 50 8 43 14 74 20
100 3 14 7 35 10 48 2 13 6 31 9 40 3 9 8 35 12 57 3 22 8 43 10 46 2 3 6 21
9 40 3 19 10 50 15 69 9 33 12 50 25 118 3 15 10 41 15 57 5 17 11 41 14 55
10 50 16 77 46 195 17 66 33 131 36 145 9 38 10 42 23 90 7 25 15 52 17 60 2
8 8 33 14 55 6 22 12 47 14 55 2 8 10 35 17 60 7 25 13 47 14 50 1 3 7 25 14
50 7 25 15 52 17 60 1 8 12 47 24 85 12 39 23 77 25 85 2 8 16 53 30 100 51
164 57 185 60 200 2 8 4 15 5 15 1 0 3 7 5 15 2 8 18 58 35 110 18 52 34 102
35 110 2 8 20 60 39 115 20 55 38 109 41 120 4 19 41 126 94 270 13 33 23 65
25 72 1 7 5 16 9 19 4 4 7 14 7 22 0 8 6 28 14 45 15 35 29 69 30 77 1 3 4 10
7 15 4 6 12 28 19 50 12 38 170 447 190 490 5 11 23 54 40 95 17 41 35 84 40
95 5 11 37 85 71 165 34 80 82 187 105 238 24 51 44 95 44 97 0 4 39 89 112
245 54 115 334 676 388 775 70 131 111 207 138 255 13 25 43 79 65 120 22 41
44 77 49 78 4 2 8 8 8 14 0 18 231 410 428 728 287 460 702 1064 991 1440 36
47 94 123 130 170 35 47 69 90 75 95 19 17 68 86 65 90 -17 16 -385 305 -389
305 -3 0 -57 -66 -120 -147z"/>
<path d="M13099 12768 c-74 -89 -145 -175 -159 -192 -137 -165 -355 -428 -535
-646 -121 -146 -225 -272 -232 -280 -11 -14 -311 -377 -351 -425 -10 -11 -49
-58 -88 -105 -132 -161 -311 -376 -625 -755 -173 -209 -318 -385 -322 -391 -4
-7 57 -64 155 -145 89 -74 246 -203 348 -287 102 -84 206 -171 231 -193 268
-226 439 -355 569 -428 80 -45 220 -111 249 -116 9 -2 17 -4 19 -5 1 -2 5 -3
10 -5 4 -1 14 -4 22 -8 26 -10 88 -28 112 -32 13 -3 34 -7 48 -10 70 -16 127
-20 255 -20 155 1 238 12 325 43 8 3 23 7 32 8 9 2 43 16 75 30 32 15 63 28
69 29 20 5 169 98 229 144 110 84 197 174 373 386 95 116 181 219 191 230 28
34 402 487 441 535 132 160 269 436 294 591 3 19 10 57 15 84 12 62 12 267 0
332 -5 26 -11 57 -13 68 -2 11 -10 40 -17 65 -7 25 -13 50 -15 55 -8 41 -86
205 -131 280 -47 76 -103 156 -123 175 -3 3 -19 23 -35 45 -57 77 -218 227
-449 418 -488 403 -811 670 -822 678 -7 6 -59 -50 -145 -153z m275 -868 c11
-10 64 -54 116 -97 52 -43 104 -85 115 -94 11 -9 67 -56 125 -104 275 -229
373 -396 365 -627 -5 -178 -47 -259 -280 -538 -202 -243 -244 -294 -437 -526
-219 -265 -239 -287 -313 -339 -111 -78 -198 -108 -320 -108 -69 -1 -129 7
-168 22 -15 6 -27 8 -27 6 0 -10 -157 68 -218 109 -61 41 -242 185 -302 239
-14 13 -73 63 -132 111 l-107 88 358 431 c196 238 523 632 726 877 202 245
391 473 419 507 28 35 53 63 55 63 2 0 13 -9 25 -20z"/>
<path d="M38987 12914 c-1 -1 -20 -4 -42 -7 -22 -3 -53 -10 -68 -16 -15 -6
-27 -9 -27 -6 0 4 -45 -13 -110 -43 -118 -53 -297 -207 -378 -325 -48 -70 -99
-192 -110 -268 -14 -90 -6 -233 18 -334 l9 -40 -44 45 c-24 25 -82 83 -130
130 l-87 84 -236 -240 c-131 -132 -245 -250 -255 -261 -20 -23 -56 13 993
-1023 176 -173 460 -454 631 -623 l312 -309 253 259 c139 142 254 261 254 264
0 7 16 -8 -509 509 -535 527 -702 694 -729 730 -27 37 -63 102 -68 122 -2 10
-6 28 -9 41 -8 32 -8 97 -1 135 25 134 181 301 336 359 43 16 147 23 178 12
12 -5 34 -11 48 -13 15 -3 34 -11 43 -18 9 -8 29 -20 46 -28 16 -8 127 -111
245 -227 118 -117 397 -393 620 -613 l404 -399 24 22 c24 22 201 199 389 389
l103 104 -129 129 c-244 246 -1126 1113 -1175 1155 -88 75 -273 200 -296 200
-5 0 -24 8 -42 18 -32 18 -92 41 -113 43 -5 1 -17 5 -26 10 -9 4 -31 11 -50
14 -19 3 -43 8 -53 12 -19 5 -213 12 -219 7z"/>
<path d="M36960 11153 c-19 -15 -36 -31 -38 -35 -2 -5 -7 -8 -12 -8 -5 0 -64
-42 -133 -92 -68 -51 -174 -129 -235 -173 -62 -44 -112 -84 -112 -89 0 -7 65
-102 80 -116 3 -3 19 -25 35 -50 17 -25 36 -51 43 -58 19 -21 34 -52 24 -52
-5 0 -12 3 -16 7 -3 4 -12 8 -19 10 -7 1 -37 9 -67 18 -202 57 -417 32 -571
-67 -268 -172 -420 -435 -413 -717 2 -96 9 -160 23 -208 5 -18 8 -33 5 -33 -3
0 0 -8 5 -18 6 -11 12 -30 15 -43 8 -47 58 -165 107 -258 43 -81 152 -256 169
-271 3 -3 23 -30 45 -60 22 -30 43 -59 47 -65 5 -5 63 -84 131 -176 67 -91
151 -198 187 -237 122 -137 287 -264 423 -326 146 -67 234 -85 386 -81 58 2
124 9 146 15 22 6 47 12 55 15 153 40 351 174 452 305 94 123 131 239 132 411
1 65 4 92 11 85 6 -6 35 -45 65 -86 30 -41 57 -77 60 -80 12 -12 69 -98 85
-130 51 -99 63 -221 31 -318 -20 -58 -76 -155 -114 -195 -35 -36 -127 -107
-174 -134 -114 -66 -296 -103 -410 -82 -21 3 -39 2 -39 -2 -1 -5 -2 -12 -3
-16 -1 -5 -5 -24 -9 -43 -4 -19 -9 -46 -12 -60 -3 -14 -7 -36 -10 -50 -3 -14
-7 -36 -10 -50 -3 -14 -7 -36 -10 -50 -3 -14 -7 -36 -10 -50 -3 -14 -7 -36
-10 -50 -8 -42 -15 -74 -20 -100 -3 -14 -8 -41 -11 -60 -3 -19 -7 -43 -10 -52
-12 -41 -14 -68 -4 -69 12 -2 14 -2 65 -17 110 -31 292 -34 421 -8 12 2 66 14
120 26 94 21 110 24 160 34 22 4 235 156 364 260 128 103 320 316 320 354 0 7
3 12 8 12 9 0 62 103 91 177 90 231 85 485 -16 743 -58 150 -128 260 -367 585
-29 39 -83 113 -121 165 -38 52 -72 97 -75 100 -3 3 -17 21 -30 40 -21 31
-652 893 -1035 1415 -73 99 -138 181 -146 183 -8 1 -30 -10 -49 -25z m-169
-1066 c52 -10 135 -57 184 -104 42 -40 348 -447 464 -616 28 -41 58 -101 67
-132 39 -134 11 -247 -87 -350 -110 -116 -253 -175 -369 -152 -25 4 -50 9 -55
10 -38 8 -135 68 -186 114 -60 56 -73 72 -264 333 -58 80 -111 152 -118 161
-13 16 -18 26 -59 99 -79 144 -84 304 -14 424 52 89 199 195 292 212 16 3 30
7 32 8 3 4 80 -1 113 -7z"/>
<path d="M34055 10488 c-38 -22 -95 -54 -125 -71 -30 -16 -62 -36 -71 -43 -8
-8 -19 -14 -22 -14 -7 0 -316 -176 -325 -185 -5 -4 45 -106 57 -115 3 -3 14
-21 23 -40 9 -19 24 -46 33 -60 8 -14 53 -92 100 -175 46 -82 88 -155 93 -161
5 -6 12 -19 16 -30 4 -10 13 -27 20 -37 13 -17 16 -17 52 4 22 12 59 33 84 47
25 13 50 28 55 32 6 4 30 19 55 32 79 44 123 69 223 127 54 31 115 65 136 76
45 23 45 21 -20 133 -27 45 -49 84 -49 86 0 2 -23 43 -51 92 -80 137 -105 183
-151 266 -24 43 -47 78 -53 77 -5 0 -41 -18 -80 -41z"/>
<path d="M15375 9608 c-210 -43 -376 -137 -551 -312 -87 -88 -204 -234 -204
-255 0 -6 -4 -11 -9 -11 -5 0 -16 -12 -24 -27 -8 -16 -57 -102 -109 -193 -127
-221 -160 -284 -189 -355 -13 -33 -24 -62 -25 -65 0 -3 -6 -17 -12 -33 -7 -15
-14 -38 -17 -50 -2 -12 -11 -49 -20 -82 -36 -145 -38 -332 -6 -477 29 -130 76
-230 186 -398 45 -69 90 -140 101 -158 10 -19 35 -43 54 -54 38 -21 58 -33
236 -135 179 -104 334 -170 437 -189 17 -2 33 -6 36 -8 6 -4 52 -13 111 -22
137 -21 376 -21 480 1 13 2 42 7 65 11 22 3 41 7 43 8 1 2 -36 117 -83 257
-48 140 -92 274 -100 299 l-14 45 -135 -1 c-115 -1 -150 2 -228 23 -214 57
-405 193 -480 344 -16 30 -28 56 -27 59 0 3 -5 19 -12 35 -27 67 -16 236 21
326 l12 28 61 -38 c34 -21 87 -51 117 -68 30 -16 163 -92 295 -168 132 -76
258 -148 280 -159 22 -12 42 -23 45 -26 10 -11 648 -373 657 -373 4 0 36 49
71 109 114 197 223 437 257 564 2 8 11 40 20 70 41 144 50 218 50 400 0 151
-4 193 -26 275 -6 22 -10 40 -10 40 1 0 -12 33 -28 74 -33 78 -78 162 -110
201 -94 118 -190 207 -299 278 -130 84 -330 171 -470 203 -26 6 -56 13 -67 16
-11 2 -81 6 -155 7 -101 2 -157 -2 -225 -16z m355 -678 c25 -7 46 -12 47 -11
2 0 39 -18 82 -40 141 -71 217 -157 251 -283 21 -77 19 -191 -5 -266 -3 -10
-7 -27 -9 -37 -2 -10 -16 -48 -31 -85 l-27 -68 -32 18 c-17 9 -33 20 -36 23
-9 10 -172 99 -181 99 -5 0 -9 5 -9 10 0 6 -5 10 -10 10 -6 0 -27 10 -48 23
-20 13 -62 37 -92 54 -85 47 -464 265 -469 269 -22 21 159 208 239 247 108 52
225 65 330 37z"/>
<path d="M34620 9543 c-83 -47 -414 -235 -470 -266 -30 -17 -56 -34 -58 -39
-2 -4 -10 -8 -17 -8 -30 0 -23 -23 40 -131 36 -61 65 -113 65 -115 0 -2 18
-33 40 -69 22 -36 40 -67 40 -69 0 -2 59 -107 131 -232 72 -126 147 -258 167
-294 20 -36 49 -87 65 -115 38 -64 44 -74 162 -285 54 -96 101 -177 104 -180
4 -3 22 -35 41 -72 19 -38 38 -68 42 -68 5 0 8 -9 8 -19 0 -11 4 -21 8 -23 5
-1 27 -37 49 -78 23 -41 85 -151 138 -245 54 -93 111 -192 126 -220 16 -27 46
-80 67 -117 20 -38 39 -68 42 -68 3 0 109 59 235 131 346 198 348 199 373 211
25 13 28 30 8 47 -8 7 -17 23 -20 36 -4 14 -11 25 -16 25 -6 0 -10 5 -10 11 0
7 -38 77 -83 158 -46 80 -95 166 -108 191 -13 25 -26 47 -29 50 -3 3 -10 14
-16 25 -6 11 -76 135 -156 275 -80 140 -164 289 -188 330 -23 41 -53 93 -65
115 -13 22 -73 128 -134 235 -60 107 -115 200 -120 207 -6 7 -11 15 -11 18 0
4 -17 37 -39 73 -42 73 -69 119 -112 197 -132 239 -229 400 -240 402 -8 1 -34
-9 -59 -24z"/>
<path d="M17409 8634 c-2 -175 -6 -448 -25 -1684 -9 -573 -12 -786 -14 -985
l-2 -180 79 -32 c43 -17 123 -49 178 -71 55 -21 109 -43 120 -47 11 -5 22 -9
25 -10 25 -9 48 -18 61 -25 12 -6 22 -2 35 15 11 12 56 63 100 111 45 49 127
141 184 204 56 63 112 124 124 136 11 12 32 34 45 50 13 16 45 52 70 79 65 72
198 218 266 295 32 36 74 83 94 105 21 22 100 110 176 195 77 85 158 175 181
200 23 25 55 61 70 80 16 19 34 40 41 45 6 6 142 156 302 334 317 352 303 330
226 359 -16 6 -106 41 -200 77 -210 83 -279 109 -285 110 -3 0 -21 8 -40 17
-85 40 -65 55 -296 -224 -301 -363 -461 -557 -499 -603 -295 -356 -436 -525
-441 -525 -3 0 -3 8 0 18 3 9 8 71 11 137 4 66 8 149 10 185 5 88 14 258 20
350 2 41 7 125 10 185 3 61 8 139 10 175 3 36 7 115 10 175 4 61 8 139 10 175
12 209 17 310 20 352 l2 46 -46 18 c-40 15 -155 60 -511 199 -52 21 -101 40
-107 42 -10 4 -13 -17 -14 -83z"/>
<path d="M33227 8694 c-1 -1 -33 -5 -72 -8 -68 -6 -89 -9 -165 -22 -76 -13
-86 -15 -102 -20 -9 -3 -25 -7 -36 -9 -206 -39 -552 -201 -733 -342 -58 -45
-189 -184 -229 -243 -42 -62 -94 -174 -105 -226 -3 -13 -8 -36 -12 -51 -10
-39 -9 -239 0 -293 31 -169 155 -409 265 -512 44 -42 149 -109 169 -110 4 0
13 -3 18 -7 9 -7 23 -12 85 -28 86 -22 229 -22 340 2 29 6 63 13 105 20 82 16
326 83 490 136 278 90 373 102 464 56 35 -17 81 -94 81 -135 0 -102 -119 -213
-340 -319 -130 -62 -196 -86 -266 -99 -15 -3 -30 -7 -34 -9 -4 -2 -29 -7 -56
-11 -27 -3 -71 -10 -99 -14 -84 -14 -425 -3 -472 14 -7 3 -26 -50 -53 -147
-22 -84 -48 -174 -56 -202 -8 -27 -16 -57 -18 -65 -2 -8 -6 -22 -9 -30 -7 -18
-28 -96 -34 -129 -2 -13 -8 -31 -12 -40 -5 -9 -11 -31 -14 -48 -6 -30 -4 -33
21 -39 15 -3 43 -10 62 -14 114 -28 456 -31 586 -6 12 2 45 7 74 11 29 4 64
11 77 16 13 5 23 6 23 4 0 -2 10 -1 23 4 13 5 39 12 58 15 19 3 49 10 67 15
18 5 35 10 37 10 17 -1 74 15 100 26 98 44 132 58 144 61 41 8 328 163 406
219 163 117 291 257 360 395 59 118 78 202 79 340 0 116 -9 172 -43 278 -108
329 -305 530 -567 579 -72 13 -296 5 -324 -12 -3 -2 -24 -6 -46 -9 -23 -4
-102 -22 -175 -41 -74 -19 -142 -37 -152 -40 -10 -2 -69 -20 -130 -39 -99 -31
-182 -55 -212 -62 -5 -1 -30 -7 -55 -14 -70 -19 -81 -21 -148 -24 -120 -7
-191 60 -163 153 13 46 76 116 149 164 88 60 286 149 362 163 14 3 34 8 45 11
11 4 25 7 30 8 16 1 98 17 120 23 11 2 110 6 220 7 l199 3 12 38 c6 22 18 59
25 84 8 25 12 45 10 45 -3 0 1 9 7 21 6 11 13 32 16 45 2 13 30 111 61 218 31
106 54 196 50 199 -6 6 -17 9 -80 17 -22 3 -58 8 -80 11 -37 6 -342 13 -348 8z"/>
<path d="M22217 8354 c-1 -1 -24 -4 -52 -7 -479 -56 -790 -420 -842 -987 -15
-165 -5 -315 31 -495 7 -36 27 -109 42 -154 17 -50 13 -71 -14 -71 -10 0 -22
-3 -26 -7 -3 -4 -14 -8 -24 -9 -29 -5 -161 -73 -224 -115 -73 -50 -161 -136
-217 -212 -44 -60 -131 -222 -131 -245 0 -7 -4 -20 -10 -30 -9 -16 -31 -90
-36 -122 -2 -8 -5 -26 -8 -40 -25 -112 -30 -163 -30 -305 1 -171 10 -236 54
-364 94 -281 327 -495 662 -611 47 -16 101 -32 119 -35 18 -3 35 -8 39 -10 4
-2 20 -7 36 -9 16 -3 40 -8 54 -11 24 -5 36 -7 150 -22 117 -16 454 -9 550 12
14 3 39 8 55 11 17 2 48 10 70 16 22 6 45 12 50 14 30 7 162 58 173 67 17 13
22 7 107 -118 81 -119 97 -139 110 -142 6 0 35 -4 65 -8 30 -4 57 -8 60 -10 3
-2 29 -6 59 -10 30 -4 63 -9 75 -11 11 -2 36 -6 56 -9 20 -3 47 -7 60 -10 13
-3 42 -7 65 -10 22 -4 51 -8 65 -10 14 -2 45 -7 70 -11 25 -4 52 -8 60 -9 8
-1 29 -4 45 -8 17 -4 50 -9 74 -12 l43 -6 -23 38 c-31 49 -205 315 -216 328
-4 6 -14 22 -22 38 -8 15 -18 27 -23 27 -4 0 -8 6 -8 13 0 7 -9 23 -20 35 -11
12 -20 23 -20 26 0 3 -36 60 -80 127 -44 68 -80 126 -80 131 0 5 22 36 49 71
59 77 141 201 141 215 0 6 4 12 9 14 10 4 123 228 114 228 -3 0 -1 6 5 13 11
13 82 200 88 232 2 11 8 31 14 45 8 23 47 168 56 213 2 10 5 26 8 35 3 9 7 33
10 52 3 19 8 45 10 56 17 85 17 94 -7 95 -12 0 -31 2 -42 4 -11 2 -38 6 -60
10 -22 3 -51 7 -65 10 -13 2 -42 7 -65 10 -22 4 -53 9 -70 12 -16 3 -37 6 -45
8 -87 12 -128 18 -145 21 -33 7 -68 13 -115 19 -24 4 -48 9 -52 11 -10 6 -16
-7 -22 -52 -10 -67 -29 -152 -62 -279 -1 -5 -9 -29 -18 -53 -8 -23 -16 -46
-17 -50 -9 -42 -50 -145 -90 -228 l-42 -87 -18 24 c-10 13 -55 80 -99 149 -44
69 -130 199 -190 290 -60 91 -124 190 -142 220 -17 30 -34 57 -37 60 -3 3 -15
23 -26 45 -11 22 -22 42 -25 45 -12 11 -131 260 -156 325 -32 86 -73 210 -79
245 -3 14 -7 36 -10 49 -26 132 -22 279 10 381 3 10 7 27 10 37 13 65 70 161
133 223 78 76 144 104 247 104 157 -1 249 -53 310 -177 55 -112 62 -236 26
-424 -7 -35 -5 -43 8 -47 18 -5 113 -22 176 -31 23 -3 50 -7 62 -9 35 -7 96
-17 133 -22 19 -2 46 -6 60 -9 14 -2 41 -7 60 -10 19 -3 46 -7 60 -10 14 -2
43 -7 65 -10 23 -3 51 -7 63 -10 28 -5 30 -1 49 130 18 115 7 386 -16 449 -5
11 -9 23 -9 26 -2 21 -20 74 -43 125 -79 174 -229 326 -415 419 -82 41 -257
101 -324 111 -24 4 -47 8 -50 10 -6 4 -56 12 -135 21 -53 6 -272 13 -278 8z
m-528 -2233 c12 -16 21 -34 21 -39 0 -6 4 -12 8 -14 5 -1 73 -97 151 -213 78
-115 180 -265 227 -333 46 -68 84 -127 84 -132 0 -4 3 -10 8 -12 11 -5 122
-166 122 -177 0 -6 7 -14 16 -19 22 -12 -74 -44 -176 -58 -188 -27 -436 29
-592 132 -159 106 -219 250 -184 444 5 25 10 54 12 65 8 42 68 182 97 224 47
69 149 161 179 161 4 0 16 -13 27 -29z"/>
<path d="M26738 8155 c-2 -2 -50 -6 -108 -10 -58 -3 -121 -8 -140 -9 -19 -2
-73 -7 -120 -11 -47 -4 -105 -8 -130 -10 -25 -2 -79 -6 -120 -9 -94 -8 -168
-14 -245 -21 -33 -2 -89 -7 -125 -11 -36 -3 -85 -7 -110 -9 -53 -4 -202 -16
-245 -20 -16 -2 -38 -3 -47 -4 -18 -1 -18 -3 -4 -176 3 -33 8 -94 11 -135 13
-170 24 -296 31 -375 2 -27 6 -75 9 -107 2 -31 7 -89 10 -130 10 -114 13 -147
20 -238 4 -47 8 -101 10 -120 2 -19 6 -69 10 -110 15 -187 22 -280 30 -367 3
-32 7 -87 10 -123 6 -70 12 -143 20 -242 3 -35 8 -88 10 -118 2 -30 7 -84 10
-120 3 -36 8 -92 10 -125 3 -33 7 -85 10 -115 4 -51 7 -87 20 -240 11 -124 14
-169 20 -240 6 -85 14 -174 20 -240 3 -25 7 -79 10 -120 3 -41 7 -95 10 -120
2 -25 7 -83 11 -130 6 -79 11 -125 13 -142 1 -3 15 -5 32 -3 17 2 63 7 102 10
40 3 97 8 127 10 30 3 84 7 120 10 36 3 90 7 120 10 30 3 84 7 120 10 36 3 85
7 110 10 25 2 81 7 125 10 44 3 103 8 130 10 28 3 79 7 115 10 249 20 322 28
405 45 28 6 59 12 70 14 84 17 197 49 255 73 8 3 21 7 27 9 30 6 245 118 273
142 8 6 38 29 66 49 105 77 211 189 280 298 21 33 39 62 39 65 1 3 13 28 27
55 50 98 93 239 116 385 9 59 8 392 -1 500 -14 149 -16 174 -22 250 -3 41 -8
98 -11 126 -2 28 -6 75 -9 105 -7 94 -16 213 -20 249 -4 40 -16 187 -20 240
-3 46 -14 128 -20 160 -3 14 -7 36 -10 50 -10 51 -13 66 -25 110 -91 348 -312
626 -618 779 -70 35 -222 94 -222 85 0 -2 -8 0 -19 5 -10 6 -31 13 -47 16 -16
2 -40 7 -54 10 -79 17 -121 23 -210 30 -77 7 -258 14 -262 10z m238 -725 c143
-32 241 -84 330 -175 62 -65 131 -194 136 -255 0 -3 4 -14 8 -25 11 -28 22
-127 35 -300 4 -49 8 -106 10 -126 4 -40 12 -134 20 -244 3 -38 7 -88 9 -110
3 -22 7 -80 11 -130 3 -49 8 -101 10 -115 8 -54 18 -220 18 -310 1 -354 -245
-586 -660 -625 -130 -12 -172 -16 -233 -20 -36 -3 -87 -7 -115 -10 -27 -2 -88
-7 -135 -10 -47 -4 -89 -8 -94 -8 -5 -1 -10 9 -11 23 -2 14 -6 61 -9 106 -4
45 -8 99 -10 120 -3 21 -7 77 -11 124 -3 47 -8 101 -10 120 -2 19 -6 71 -9
115 -4 44 -8 100 -11 125 -2 25 -7 83 -10 130 -4 47 -8 101 -10 120 -2 19 -6
76 -10 127 -3 51 -8 102 -10 115 -2 13 -6 64 -10 113 -3 50 -8 106 -10 125 -2
19 -6 76 -10 125 -4 50 -8 104 -10 120 -1 17 -6 71 -10 120 -3 50 -8 106 -10
125 -2 19 -6 73 -10 120 -4 47 -8 101 -10 120 -2 19 -7 76 -10 125 -4 50 -9
93 -11 97 -9 15 17 20 206 34 36 2 86 7 111 9 25 3 81 7 125 10 43 3 80 7 81
9 12 12 271 1 339 -14z"/>
<path d="M30050 7659 c-19 -4 -48 -10 -65 -13 -70 -13 -88 -18 -172 -45 -265
-87 -466 -225 -612 -419 -35 -46 -119 -204 -125 -234 -2 -7 -6 -20 -9 -28 -18
-48 -31 -103 -45 -190 -15 -98 -7 -389 14 -494 2 -12 7 -34 10 -51 4 -24 38
-158 79 -315 27 -104 48 -175 65 -225 12 -33 24 -69 27 -80 15 -49 107 -218
152 -280 165 -226 344 -343 636 -414 286 -69 276 -68 353 -47 43 12 67 17 97
23 17 3 38 9 47 14 9 5 34 12 55 15 21 3 46 10 56 15 9 5 17 8 17 5 0 -7 183
51 245 78 84 38 235 122 274 154 9 7 45 36 81 64 96 77 188 172 264 272 54 72
64 92 54 101 -7 7 -134 74 -282 149 l-268 137 -61 -67 c-33 -36 -89 -88 -124
-114 -72 -55 -207 -124 -274 -140 -24 -6 -53 -13 -64 -16 -139 -34 -280 -21
-403 37 -100 48 -272 264 -232 290 8 5 20 9 25 10 15 1 28 4 180 44 77 20 156
40 175 45 19 4 44 11 55 14 99 26 223 58 235 61 8 2 69 17 135 34 66 18 128
34 138 36 10 2 27 7 37 10 10 3 28 8 40 10 11 2 55 14 98 25 42 12 85 24 95
26 9 2 26 6 37 9 11 3 29 7 40 10 11 3 28 7 38 9 9 2 62 16 117 31 55 15 111
29 125 31 41 8 44 19 26 84 -10 34 -19 70 -22 81 -2 10 -6 29 -9 41 -2 12 -11
44 -20 72 -9 28 -20 67 -26 86 -106 348 -306 673 -518 840 -129 102 -276 173
-426 206 -46 10 -325 12 -365 3z m277 -669 c128 -41 237 -150 314 -313 34 -74
40 -109 19 -112 -8 -2 -40 -10 -71 -19 -31 -9 -66 -19 -78 -21 -13 -2 -31 -7
-41 -10 -10 -3 -28 -8 -39 -10 -12 -3 -30 -7 -41 -10 -11 -3 -28 -7 -37 -9
-52 -13 -379 -98 -448 -116 -44 -12 -91 -24 -104 -26 -14 -3 -28 -7 -32 -9 -4
-3 -23 -7 -43 -10 -32 -6 -36 -4 -37 17 0 13 -3 32 -5 43 -6 26 -7 163 -1 195
25 145 95 250 221 332 59 38 158 75 226 85 19 3 36 6 38 8 7 6 126 -5 159 -15z"/>
</g>
</svg>
